<?xml version="1.0" encoding="utf-8"?>
<!-- Generator: Adobe Illustrator 22.1.0, SVG Export Plug-In . SVG Version: 6.00 Build 0)  -->
<svg version="1.1" id="Layer_1" xmlns="http://www.w3.org/2000/svg" xmlns:xlink="http://www.w3.org/1999/xlink" x="0px" y="0px"
	 viewBox="0 0 217 202" style="enable-background:new 0 0 217 202;" xml:space="preserve">
<style type="text/css">
	.st0{fill:#060029;}
	.st1{fill:#FFFFFF;}
</style>
<path class="st0" d="M110.4,49.5V28.6c4.8-0.9,8.5-5.1,8.5-10.2c0-5.7-4.7-10.4-10.4-10.4s-10.4,4.7-10.4,10.4
	c0,5.1,3.7,9.4,8.6,10.2v20.9c-41.4,1-74.6,37.8-74.6,77.2c0,39.9,34.2,67.2,76.4,67.2s76.4-27.3,76.4-67.2
	C184.9,87.6,146,50.9,110.4,49.5z"/>
<path class="st1" d="M144,147.4c-23.4,6-47.6,6-71,0c-10.4-2.7-17.6-11.3-17.6-21.2c0-3,0-5.9,0-8.9c0-9.8,7.2-18.5,17.6-21.2
	c23.4-6,47.6-6,71,0c10.4,2.7,17.6,11.3,17.6,21.2c0,3,0,5.9,0,8.9C161.6,136,154.4,144.7,144,147.4z"/>
<g>
	<path class="st0" d="M98.1,135.9H73v-1.6c0-6.9,5.6-12.6,12.6-12.6l0,0c6.9,0,12.6,5.6,12.6,12.6L98.1,135.9L98.1,135.9z"/>
	<path class="st0" d="M144,135.9h-25.1v-1.6c0-6.9,5.6-12.6,12.6-12.6l0,0c6.9,0,12.6,5.6,12.6,12.6v1.6H144z"/>
</g>
<path class="st0" d="M194.2,98.2h-8.7c4.2,9,6.7,18.7,6.7,28.5c0,6.6-0.9,12.8-2.7,18.6h4.7c9.3,0,16.9-7.6,16.9-16.9v-13.3
	C211.1,105.8,203.6,98.2,194.2,98.2z"/>
<path class="st0" d="M22.8,98.2h8.7c-4.2,9-6.7,18.7-6.7,28.5c0,6.6,0.9,12.8,2.7,18.6h-4.7c-9.3,0-16.9-7.6-16.9-16.9v-13.3
	C5.9,105.8,13.4,98.2,22.8,98.2z"/>
</svg>
